<svg xmlns:xlink="http://www.w3.org/1999/xlink"  width="193" height="234" viewBox="0 0 193 234" fill="none" xmlns="http://www.w3.org/2000/svg">
<path d="M0 209.8L53.5 125.5L19.4 133.1L9.6 89.4L43.7 81.8L14.1 63L38.1 25.2L67.7 43.9L60 9.8L103.7 0L111.3 34.1L130 4.6L167.8 28.6L149.1 58.1L183.2 50.5L193 94.2L158.9 101.8L188.5 120.5L164.5 158.3L135 139.7L142.6 173.9L98.9 183.7L91.3 149.6L37.8 233.9L0 209.8Z" fill="#F4F4F4"/>
<path d="M171.9 124.3L128 96.4L178.7 85L174.2 64.8L123.5 76.2L151.3 32.3L133.8 21.2L106 65.1L94.6 14.4L74.4 18.9L85.8 69.6L41.8 41.8L30.7 59.3L74.6 87.1L23.9 98.5L28.4 118.7L79.1 107.3L16.5 206L34 217.1L96.6 118.4L108 169.1L128.2 164.6L116.9 114L160.8 141.8L171.9 124.3Z" fill="#FFD400"/>
</svg>
