<svg xmlns="http://www.w3.org/2000/svg" xmlns:xlink="http://www.w3.org/1999/xlink" viewBox="0 0 1000 1000" width="1000" height="1000" preserveAspectRatio="xMidYMid meet" style="width: 100%; height: 100%; transform: translate3d(0px, 0px, 0px); content-visibility: visible;"><defs><clipPath id="__lottie_element_412"><rect width="1000" height="1000" x="0" y="0"></rect></clipPath><g id="__lottie_element_426"><g transform="matrix(1,0,0,1,219.9608154296875,246.13400268554688)" opacity="1" style="display: block;"><g opacity="1" transform="matrix(1,0,0,1,145.3350067138672,231.81199645996094)"><path fill="rgb(255,255,255)" fill-opacity="1" d=" M0.024000000208616257,219.9969940185547 C82.60700225830078,219.9969940185547 133.91700744628906,135.68299865722656 133.91700744628906,-0.012000000104308128 C133.91700744628906,-135.70700073242188 82.60700225830078,-219.9969940185547 0.024000000208616257,-219.9969940185547 C-82.58300018310547,-219.9969940185547 -133.91700744628906,-135.70700073242188 -133.91600036621094,-0.012000000104308128 C-133.91600036621094,135.68299865722656 -82.58300018310547,219.9969940185547 0.024000000208616257,219.9969940185547z"></path></g></g></g><g id="__lottie_element_429"><g transform="matrix(1,0,0,1,487.7947998046875,246.13400268554688)" opacity="1" style="display: block;"><g opacity="1" transform="matrix(1,0,0,1,145.3459930419922,231.81199645996094)"><path fill="rgb(255,255,255)" fill-opacity="1" d=" M-0.010999999940395355,219.9969940185547 C82.59600067138672,219.9969940185547 133.9290008544922,135.68299865722656 133.9290008544922,-0.012000000104308128 C133.9290008544922,-135.70700073242188 82.59600067138672,-219.9969940185547 -0.010999999940395355,-219.9969940185547 C-82.61799621582031,-219.9969940185547 -133.9290008544922,-135.70700073242188 -133.9290008544922,-0.012000000104308128 C-133.9290008544922,135.68299865722656 -82.61799621582031,219.9969940185547 -0.010999999940395355,219.9969940185547z"></path></g></g></g><g id="__lottie_element_432"><g transform="matrix(1,0,0,1,219.9608154296875,246.13400268554688)" opacity="1" style="display: block;"><g opacity="1" transform="matrix(1,0,0,1,145.3350067138672,231.81199645996094)"><path fill="rgb(255,255,255)" fill-opacity="1" d=" M0.024000000208616257,219.9969940185547 C82.60700225830078,219.9969940185547 133.91700744628906,135.68299865722656 133.91700744628906,-0.012000000104308128 C133.91700744628906,-135.70700073242188 82.60700225830078,-219.9969940185547 0.024000000208616257,-219.9969940185547 C-82.58300018310547,-219.9969940185547 -133.91700744628906,-135.70700073242188 -133.91600036621094,-0.012000000104308128 C-133.91600036621094,135.68299865722656 -82.58300018310547,219.9969940185547 0.024000000208616257,219.9969940185547z"></path></g></g></g><g id="__lottie_element_435"><g transform="matrix(1,0,0,1,487.7947998046875,246.13400268554688)" opacity="1" style="display: block;"><g opacity="1" transform="matrix(1,0,0,1,145.3459930419922,231.81199645996094)"><path fill="rgb(255,255,255)" fill-opacity="1" d=" M-0.010999999940395355,219.9969940185547 C82.59600067138672,219.9969940185547 133.9290008544922,135.68299865722656 133.9290008544922,-0.012000000104308128 C133.9290008544922,-135.70700073242188 82.59600067138672,-219.9969940185547 -0.010999999940395355,-219.9969940185547 C-82.61799621582031,-219.9969940185547 -133.9290008544922,-135.70700073242188 -133.9290008544922,-0.012000000104308128 C-133.9290008544922,135.68299865722656 -82.61799621582031,219.9969940185547 -0.010999999940395355,219.9969940185547z"></path></g></g></g><mask id="__lottie_element_423" mask-type="alpha"><use href="#__lottie_element_458"></use></mask><symbol id="__lottie_element_458"><g transform="matrix(1,0,0,1,219.9608154296875,246.13400268554688)" opacity="1" style="display: block;"><g opacity="1" transform="matrix(1,0,0,1,145.3350067138672,231.81199645996094)"><path fill="rgb(255,255,255)" fill-opacity="1" d=" M0.024000000208616257,219.9969940185547 C82.60700225830078,219.9969940185547 133.91700744628906,135.68299865722656 133.91700744628906,-0.012000000104308128 C133.91700744628906,-135.70700073242188 82.60700225830078,-219.9969940185547 0.024000000208616257,-219.9969940185547 C-82.58300018310547,-219.9969940185547 -133.91700744628906,-135.70700073242188 -133.91600036621094,-0.012000000104308128 C-133.91600036621094,135.68299865722656 -82.58300018310547,219.9969940185547 0.024000000208616257,219.9969940185547z"></path></g></g></symbol><mask id="__lottie_element_419" mask-type="alpha"><use href="#__lottie_element_459"></use></mask><symbol id="__lottie_element_459"><g transform="matrix(1,0,0,1,487.7947998046875,246.13400268554688)" opacity="1" style="display: block;"><g opacity="1" transform="matrix(1,0,0,1,145.3459930419922,231.81199645996094)"><path fill="rgb(255,255,255)" fill-opacity="1" d=" M-0.010999999940395355,219.9969940185547 C82.59600067138672,219.9969940185547 133.9290008544922,135.68299865722656 133.9290008544922,-0.012000000104308128 C133.9290008544922,-135.70700073242188 82.59600067138672,-219.9969940185547 -0.010999999940395355,-219.9969940185547 C-82.61799621582031,-219.9969940185547 -133.9290008544922,-135.70700073242188 -133.9290008544922,-0.012000000104308128 C-133.9290008544922,135.68299865722656 -82.61799621582031,219.9969940185547 -0.010999999940395355,219.9969940185547z"></path></g></g></symbol></defs><g clip-path="url(#__lottie_element_412)"><g transform="matrix(1,0,0,1,375.4239807128906,151.11898803710938)" opacity="1" style="display: block;"><g opacity="1" transform="matrix(1,0,0,1,258.9599914550781,338.0299987792969)"><path fill="rgb(28,28,28)" fill-opacity="1" d=" M18.19099998474121,231.1999969482422 C100.7979965209961,231.1999969482422 152.13099670410156,146.88600158691406 152.13099670410156,11.190999984741211 C152.13099670410156,-124.50399780273438 72.8239974975586,-231.1999969482422 -9.782999992370605,-231.1999969482422 C-92.38999938964844,-231.1999969482422 -152.1300048828125,-122.42400360107422 -152.1300048828125,13.270999908447266 C-152.12899780273438,148.96600341796875 -64.41600036621094,231.1999969482422 18.19099998474121,231.1999969482422z"></path><path stroke-linecap="round" stroke-linejoin="round" fill-opacity="0" stroke="rgb(28,28,28)" stroke-opacity="1" stroke-width="42.732" d=" M18.19099998474121,231.1999969482422 C100.7979965209961,231.1999969482422 152.13099670410156,146.88600158691406 152.13099670410156,11.190999984741211 C152.13099670410156,-124.50399780273438 72.8239974975586,-231.1999969482422 -9.782999992370605,-231.1999969482422 C-92.38999938964844,-231.1999969482422 -152.1300048828125,-122.42400360107422 -152.1300048828125,13.270999908447266 C-152.12899780273438,148.96600341796875 -64.41600036621094,231.1999969482422 18.19099998474121,231.1999969482422z"></path></g></g><g transform="matrix(1,0,0,1,107.59201049804688,151.11898803710938)" opacity="1" style="display: block;"><g opacity="1" transform="matrix(1,0,0,1,240.74600219726562,338.0299987792969)"><path fill="rgb(28,28,28)" fill-opacity="1" d=" M36.426998138427734,231.1999969482422 C119.01100158691406,231.1999969482422 133.91700744628906,148.96600341796875 133.91700744628906,13.270999908447266 C133.91700744628906,-122.42400360107422 91.03700256347656,-231.1999969482422 8.454000473022461,-231.1999969482422 C-74.15299987792969,-231.1999969482422 -133.91600036621094,-122.42400360107422 -133.91600036621094,13.270999908447266 C-133.91600036621094,148.96600341796875 -46.18000030517578,231.1999969482422 36.426998138427734,231.1999969482422z"></path><path stroke-linecap="round" stroke-linejoin="round" fill-opacity="0" stroke="rgb(28,28,28)" stroke-opacity="1" stroke-width="42.732" d=" M36.426998138427734,231.1999969482422 C119.01100158691406,231.1999969482422 133.91700744628906,148.96600341796875 133.91700744628906,13.270999908447266 C133.91700744628906,-122.42400360107422 91.03700256347656,-231.1999969482422 8.454000473022461,-231.1999969482422 C-74.15299987792969,-231.1999969482422 -133.91600036621094,-122.42400360107422 -133.91600036621094,13.270999908447266 C-133.91600036621094,148.96600341796875 -46.18000030517578,231.1999969482422 36.426998138427734,231.1999969482422z"></path></g></g><use href="#__lottie_element_459"></use><use href="#__lottie_element_458"></use><g transform="matrix(1,0,0,1,365.58380126953125,395.71002197265625)" opacity="1" style="display: block;"><g opacity="1" transform="matrix(1,0,0,1,50.15599822998047,82.23600006103516)"><path fill="rgb(28,28,28)" fill-opacity="1" d=" M0.008999999612569809,81.98600006103516 C30.78499984741211,81.98600006103516 49.90599822998047,50.564998626708984 49.90599822998047,-0.004000000189989805 C49.904998779296875,-50.573001861572266 30.78499984741211,-81.98600006103516 0.008999999612569809,-81.98600006103516 C-30.775999069213867,-81.98600006103516 -49.90599822998047,-50.573001861572266 -49.90599822998047,-0.004000000189989805 C-49.90599822998047,50.564998626708984 -30.775999069213867,81.98600006103516 0.008999999612569809,81.98600006103516z"></path></g></g><g transform="matrix(1,0,0,1,634.2938232421875,395.71002197265625)" opacity="1" style="display: block;"><g opacity="1" transform="matrix(1,0,0,1,50.15599822998047,82.23600006103516)"><path fill="rgb(28,28,28)" fill-opacity="1" d=" M0.008999999612569809,81.98600006103516 C30.78499984741211,81.98600006103516 49.90599822998047,50.564998626708984 49.90599822998047,-0.004000000189989805 C49.904998779296875,-50.573001861572266 30.78499984741211,-81.98600006103516 0.008999999612569809,-81.98600006103516 C-30.775999069213867,-81.98600006103516 -49.90599822998047,-50.573001861572266 -49.90599822998047,-0.004000000189989805 C-49.90599822998047,50.564998626708984 -30.775999069213867,81.98600006103516 0.008999999612569809,81.98600006103516z"></path></g></g><g mask="url(#__lottie_element_419)" style="display: block;"><g transform="matrix(1,0,0,1,487.7947998046875,242.89703369140625)" opacity="1"><g opacity="1" transform="matrix(1,0,0,1,145.3459930419922,231.81199645996094)"><path fill="rgb(255,255,255)" fill-opacity="1" d=" M-0.010999999940395355,219.9969940185547 C82.59600067138672,219.9969940185547 133.9290008544922,135.68299865722656 133.9290008544922,-0.012000000104308128 C133.9290008544922,-135.70700073242188 82.59600067138672,-219.9969940185547 -0.010999999940395355,-219.9969940185547 C-82.61799621582031,-219.9969940185547 -133.9290008544922,-135.70700073242188 -133.9290008544922,-0.012000000104308128 C-133.9290008544922,135.68299865722656 -82.61799621582031,219.9969940185547 -0.010999999940395355,219.9969940185547z"></path></g><g opacity="1" transform="matrix(1,0,0,1,145.20700073242188,231.28500366210938)"><path fill="rgb(26,26,26)" fill-opacity="1" d=" M0.12800000607967377,231.0240020751953 C17.339000701904297,230.99200439453125 34.09600067138672,227.40199279785156 49.77000045776367,220.33700561523438 C64.51300048828125,213.69200134277344 77.76599884033203,203.48599243164062 88.6259994506836,191.5570068359375 C100.87899780273438,178.0970001220703 110.5979995727539,162.46600341796875 118.02999877929688,145.88699340820312 C126.77899932861328,126.37200164794922 132.92300415039062,105.88899993896484 136.98199462890625,84.90499877929688 C141.73899841308594,60.308998107910156 144.0189971923828,35.222999572753906 144.47999572753906,10.1899995803833 C144.95799255371094,-15.77400016784668 143.4969940185547,-41.71900177001953 139.75900268554688,-67.4209976196289 C136.67100524902344,-88.65899658203125 131.80799865722656,-109.73500061035156 124.23100280761719,-129.8419952392578 C117.58599853515625,-147.47300720214844 109.14900207519531,-164.54100036621094 97.65799713134766,-179.54200744628906 C87.10900115966797,-193.31199645996094 74.60600280761719,-205.4199981689453 59.56100082397461,-214.22999572753906 C44.90299987792969,-222.81300354003906 28.645999908447266,-227.6959991455078 11.79800033569336,-229.39300537109375 C-4.51200008392334,-231.03500366210938 -21.555999755859375,-229.3520050048828 -37.13199996948242,-224.19200134277344 C-53.172000885009766,-218.87899780273438 -67.68099975585938,-210.11199951171875 -80.1520004272461,-198.74200439453125 C-93.08799743652344,-186.947998046875 -103.61199951171875,-172.3719940185547 -111.83100128173828,-156.9669952392578 C-121.46800231933594,-138.9029998779297 -128.3990020751953,-119.36900329589844 -133.27999877929688,-99.51599884033203 C-139.03500366210938,-76.11100006103516 -142.13299560546875,-52.0099983215332 -143.49899291992188,-27.966999053955078 C-144.95700073242188,-2.313999891281128 -144.531005859375,23.531999588012695 -141.90499877929688,49.09700012207031 C-139.5469970703125,72.05799865722656 -135.57400512695312,94.94999694824219 -128.71200561523438,117.01799774169922 C-122.91300201416016,135.66400146484375 -115.1500015258789,154 -104.53399658203125,170.43800354003906 C-94.86000061035156,185.41700744628906 -82.98100280761719,198.60899353027344 -68.59300231933594,209.16700744628906 C-55.78099822998047,218.56900024414062 -40.70899963378906,225.26699829101562 -25.134000778198242,228.43699645996094 C-16.839000701904297,230.125 -8.336999893188477,231.00799560546875 0.12800000607967377,231.0240020751953 C5.620999813079834,231.03399658203125 10.881999969482422,226.18699645996094 10.628000259399414,220.5240020751953 C10.373000144958496,214.8260040283203 6.014999866485596,210.03500366210938 0.12800000607967377,210.0240020751953 C-3.7690000534057617,210.01699829101562 -7.664999961853027,209.83599853515625 -11.543000221252441,209.4459991455078 C-12.494000434875488,209.35000610351562 -13.4399995803833,209.22500610351562 -14.390000343322754,209.12100219726562 C-15.093000411987305,209.0449981689453 -11.442999839782715,209.5469970703125 -13.338000297546387,209.26199340820312 C-13.913999557495117,209.1750030517578 -14.491000175476074,209.0919952392578 -15.065999984741211,209 C-16.922000885009766,208.70399475097656 -18.770999908447266,208.36000061035156 -20.608999252319336,207.96600341796875 C-24.23699951171875,207.18899536132812 -27.822999954223633,206.2209930419922 -31.347999572753906,205.06100463867188 C-33.095001220703125,204.48599243164062 -34.82699966430664,203.86399841308594 -36.54100036621094,203.19500732421875 C-37.000999450683594,203.01600646972656 -37.459999084472656,202.8300018310547 -37.91999816894531,202.64700317382812 C-39.50699996948242,202.01199340820312 -37.64799880981445,202.85400390625 -36.974998474121094,203.0540008544922 C-37.83100128173828,202.7989959716797 -38.67900085449219,202.31300354003906 -39.49100112915039,201.9409942626953 C-46.27399826049805,198.83299255371094 -52.70800018310547,194.9810028076172 -58.6870002746582,190.52099609375 C-59.0260009765625,190.26800537109375 -59.41699981689453,190.031005859375 -59.722999572753906,189.74000549316406 C-59.939998626708984,189.53399658203125 -57.612998962402344,191.4010009765625 -58.45399856567383,190.72000122070312 C-58.67900085449219,190.53799438476562 -58.9109992980957,190.36300659179688 -59.137001037597656,190.1840057373047 C-59.87699890136719,189.59800720214844 -60.608001708984375,189.00399780273438 -61.332000732421875,188.39999389648438 C-62.79399871826172,187.18299865722656 -64.22599792480469,185.9290008544922 -65.62699890136719,184.64199829101562 C-68.54100036621094,181.96400451660156 -71.322998046875,179.14300537109375 -73.97100067138672,176.2030029296875 C-75.30000305175781,174.7259979248047 -76.5979995727539,173.22000122070312 -77.86100006103516,171.68699645996094 C-78.45099639892578,170.9709930419922 -79.03299713134766,170.2480010986328 -79.60900115966797,169.52000427246094 C-79.802001953125,169.2760009765625 -79.99199676513672,169.0290069580078 -80.18599700927734,168.78700256347656 C-80.87000274658203,167.93299865722656 -79.10700225830078,170.19400024414062 -79.26000213623047,169.98699951171875 C-79.58499908447266,169.54600524902344 -79.92500305175781,169.11500549316406 -80.25399780273438,168.67599487304688 C-82.74800109863281,165.3489990234375 -85.0999984741211,161.91700744628906 -87.31900024414062,158.39999389648438 C-92.0770034790039,150.86300659179688 -96.22000122070312,142.94500732421875 -99.84300231933594,134.8040008544922 C-100.31400299072266,133.7480010986328 -100.76499938964844,132.6840057373047 -101.22799682617188,131.62399291992188 C-101.67900085449219,130.58900451660156 -100.62300109863281,133.07000732421875 -100.69200134277344,132.89500427246094 C-100.79000091552734,132.6439971923828 -100.9000015258789,132.39700317382812 -101.00199890136719,132.1479949951172 C-101.24199676513672,131.56399536132812 -101.48300170898438,130.97999572753906 -101.72000122070312,130.39500427246094 C-102.61100006103516,128.19000244140625 -103.46700286865234,125.97200012207031 -104.28900146484375,123.74099731445312 C-106.02100372314453,119.04499816894531 -107.60399627685547,114.29399871826172 -109.05400085449219,109.50299835205078 C-112.08599853515625,99.48400115966797 -114.53700256347656,89.29199981689453 -116.51499938964844,79.01399993896484 C-117.58699798583984,73.44000244140625 -118.5199966430664,67.83899688720703 -119.3270034790039,62.220001220703125 C-119.41999816894531,61.56999969482422 -119.51000213623047,60.917999267578125 -119.60199737548828,60.266998291015625 C-119.87999725341797,58.29499816894531 -119.322998046875,62.42100143432617 -119.58000183105469,60.4379997253418 C-119.77999877929688,58.895999908447266 -119.97599792480469,57.35300064086914 -120.16000366210938,55.80799865722656 C-120.50800323486328,52.895999908447266 -120.8239974975586,49.97999954223633 -121.10900115966797,47.06100082397461 C-122.31999969482422,34.68299865722656 -122.98699951171875,22.2549991607666 -123.20700073242188,9.821000099182129 C-123.43199920654297,-2.8949999809265137 -123.20999908447266,-15.623000144958496 -122.47899627685547,-28.320999145507812 C-122.125,-34.459999084472656 -121.6510009765625,-40.59199905395508 -121.04199981689453,-46.709999084472656 C-120.75199890136719,-49.624000549316406 -120.43299865722656,-52.53499984741211 -120.08100128173828,-55.44200134277344 C-119.91999816894531,-56.76499938964844 -119.7509994506836,-58.08599853515625 -119.58000183105469,-59.40700149536133 C-119.33300018310547,-61.31399917602539 -119.89199829101562,-57.14899826049805 -119.55699920654297,-59.5620002746582 C-119.45099639892578,-60.32099914550781 -119.34300231933594,-61.08000183105469 -119.23300170898438,-61.8380012512207 C-116.21199798583984,-82.62200164794922 -111.48899841308594,-103.24500274658203 -104.19300079345703,-122.96399688720703 C-103.33799743652344,-125.2770004272461 -102.4469985961914,-127.57599639892578 -101.51699829101562,-129.86000061035156 C-101.31300354003906,-130.36099243164062 -101.1050033569336,-130.85899353027344 -100.9000015258789,-131.36000061035156 C-100.21499633789062,-133.0330047607422 -101.83899688720703,-129.1790008544922 -101.1240005493164,-130.83299255371094 C-100.62999725341797,-131.9739990234375 -100.13600158691406,-133.11500549316406 -99.62699890136719,-134.25 C-97.78800201416016,-138.35400390625 -95.81600189208984,-142.3990020751953 -93.6989974975586,-146.3679962158203 C-89.67500305175781,-153.91099548339844 -85.1240005493164,-161.18299865722656 -79.97000122070312,-168.00900268554688 C-79.70099639892578,-168.36599731445312 -78.60900115966797,-169.78500366210938 -79.79399871826172,-168.25100708007812 C-80.97799682617188,-166.71800231933594 -79.88600158691406,-168.12600708007812 -79.60900115966797,-168.4759979248047 C-78.93800354003906,-169.3249969482422 -78.25700378417969,-170.16600036621094 -77.56600189208984,-170.99899291992188 C-76.29900360107422,-172.5260009765625 -74.9990005493164,-174.02499389648438 -73.66600036621094,-175.4949951171875 C-71.05999755859375,-178.3679962158203 -68.3270034790039,-181.125 -65.46499633789062,-183.74400329589844 C-64.06300354003906,-185.0279998779297 -62.62799835205078,-186.2779998779297 -61.165000915527344,-187.49200439453125 C-60.43899917602539,-188.093994140625 -59.70399856567383,-188.68299865722656 -58.96699905395508,-189.27099609375 C-57.65399932861328,-190.3179931640625 -59.14799880981445,-189.1909942626953 -59.722999572753906,-188.69200134277344 C-59.29199981689453,-189.06700134277344 -58.80099868774414,-189.38999938964844 -58.34199905395508,-189.72999572753906 C-55.35900115966797,-191.93699645996094 -52.26499938964844,-193.9929962158203 -49.07099914550781,-195.88099670410156 C-45.90599822998047,-197.75100708007812 -42.643001556396484,-199.45399475097656 -39.29899978637695,-200.97900390625 C-38.8489990234375,-201.18299865722656 -38.39899826049805,-201.38499450683594 -37.946998596191406,-201.58299255371094 C-37.518001556396484,-201.77099609375 -35.974998474121094,-202.4250030517578 -37.8380012512207,-201.63800048828125 C-39.70199966430664,-200.8509979248047 -38.15800094604492,-201.49899291992188 -37.722999572753906,-201.6750030517578 C-37.26499938964844,-201.86000061035156 -36.80400085449219,-202.04200744628906 -36.34299850463867,-202.2209930419922 C-34.5620002746582,-202.91099548339844 -32.762001037597656,-203.552001953125 -30.944000244140625,-204.14100646972656 C-27.413000106811523,-205.28700256347656 -23.81999969482422,-206.24099731445312 -20.187000274658203,-207.0030059814453 C-18.344999313354492,-207.38900756835938 -16.493999481201172,-207.7270050048828 -14.635000228881836,-208.01499938964844 C-14.20300006866455,-208.08299255371094 -13.770000457763672,-208.1439971923828 -13.338000297546387,-208.20899963378906 C-11.135000228881836,-208.54200744628906 -15.805000305175781,-207.9080047607422 -14.17300033569336,-208.0959930419922 C-13.222999572753906,-208.20599365234375 -12.27299976348877,-208.32000732421875 -11.321999549865723,-208.41400146484375 C-3.497999906539917,-209.18699645996094 4.419000148773193,-209.16600036621094 12.23799991607666,-208.3470001220703 C13.11400032043457,-208.25599670410156 13.987000465393066,-208.1300048828125 14.86299991607666,-208.04100036621094 C10.755999565124512,-208.45799255371094 14.472000122070312,-208.0850067138672 15.538000106811523,-207.91299438476562 C17.392000198364258,-207.61399841308594 19.239999771118164,-207.26499938964844 21.076000213623047,-206.8679962158203 C24.770999908447266,-206.07000732421875 28.422000885009766,-205.07200622558594 32.00699996948242,-203.875 C33.75199890136719,-203.29299926757812 35.48099899291992,-202.66400146484375 37.19200134277344,-201.98899841308594 C37.58599853515625,-201.83399963378906 37.97800064086914,-201.6719970703125 38.37099838256836,-201.51499938964844 C40.090999603271484,-200.8300018310547 36.80799865722656,-202.1999969482422 37.42599868774414,-201.9199981689453 C38.32500076293945,-201.51100158691406 39.23699951171875,-201.12899780273438 40.13399887084961,-200.71299743652344 C43.470001220703125,-199.16799926757812 46.72200012207031,-197.44400024414062 49.875999450683594,-195.5540008544922 C53.12699890136719,-193.60699462890625 56.25,-191.4709930419922 59.292999267578125,-189.21400451660156 C60.63999938964844,-188.21400451660156 59.16899871826172,-189.37600708007812 58.54399871826172,-189.80499267578125 C58.89899826049805,-189.56100463867188 59.229000091552734,-189.2689971923828 59.56700134277344,-189.00100708007812 C60.36199951171875,-188.36900329589844 61.14899826049805,-187.7259979248047 61.928001403808594,-187.072998046875 C63.387001037597656,-185.8489990234375 64.81600189208984,-184.58900451660156 66.21399688720703,-183.29600524902344 C69.06700134277344,-180.65699768066406 71.79100036621094,-177.8800048828125 74.38700103759766,-174.98899841308594 C75.71499633789062,-173.50999450683594 77.01000213623047,-172 78.27200317382812,-170.46400451660156 C78.91000366210938,-169.68600463867188 79.53700256347656,-168.8990020751953 80.16300201416016,-168.11000061035156 C81.34700012207031,-166.6179962158203 79.26399993896484,-169.29800415039062 79.66699981689453,-168.7570037841797 C80.04199981689453,-168.25399780273438 80.4260025024414,-167.75799560546875 80.8010025024414,-167.25599670410156 C85.875,-160.44400024414062 90.35700225830078,-153.2010040283203 94.3239974975586,-145.6929931640625 C96.47200012207031,-141.62899780273438 98.46900177001953,-137.48500061035156 100.3290023803711,-133.27999877929688 C100.76100158691406,-132.3040008544922 101.16799926757812,-131.31500244140625 101.60299682617188,-130.33999633789062 C101.67900085449219,-130.16900634765625 100.64199829101562,-132.6580047607422 101.06600189208984,-131.60899353027344 C101.16699981689453,-131.35899353027344 101.27400207519531,-131.11000061035156 101.37699890136719,-130.86099243164062 C101.65299987792969,-130.1929931640625 101.92400360107422,-129.5240020751953 102.19400024414062,-128.85299682617188 C103.08100128173828,-126.64399719238281 103.93399810791016,-124.41999816894531 104.75299835205078,-122.18399810791016 C108.24199676513672,-112.65599822998047 111.12699890136719,-102.91200256347656 113.5199966430664,-93.0530014038086 C116.0979995727539,-82.43499755859375 118.10600280761719,-71.68099975585938 119.6500015258789,-60.86399841308594 C119.75800323486328,-60.104000091552734 119.85299682617188,-59.34199905395508 119.97000122070312,-58.58300018310547 C119.98200225830078,-58.50299835205078 119.66000366210938,-60.92900085449219 119.81400299072266,-59.736000061035156 C119.85600280761719,-59.40700149536133 119.9010009765625,-59.077999114990234 119.94400024414062,-58.749000549316406 C120.12999725341797,-57.316001892089844 120.30799865722656,-55.88100051879883 120.47799682617188,-54.44499969482422 C120.83699798583984,-51.41699981689453 121.16200256347656,-48.3849983215332 121.4540023803711,-45.349998474121094 C122.03299713134766,-39.32899856567383 122.48400115966797,-33.29600143432617 122.81800079345703,-27.256999969482422 C124.20600128173828,-2.177000045776367 123.79399871826172,23.082000732421875 121.28700256347656,48.08000183105469 C120.99500274658203,50.992000579833984 120.6729965209961,53.900001525878906 120.31800079345703,56.80500030517578 C120.14399719238281,58.236000061035156 119.9469985961914,59.66400146484375 119.7699966430664,61.095001220703125 C119.76000213623047,61.176998138427734 120.09400177001953,58.75299835205078 119.92500305175781,59.941001892089844 C119.87799835205078,60.266998291015625 119.83399963378906,60.59299850463867 119.78800201416016,60.91899871826172 C119.66699981689453,61.7859992980957 119.54199981689453,62.6510009765625 119.41500091552734,63.516998291015625 C118.60600280761719,69.01100158691406 117.6760025024414,74.48899841308594 116.61100006103516,79.93900299072266 C114.59100341796875,90.28199768066406 112.08899688720703,100.53500366210938 108.99099731445312,110.60900115966797 C107.552001953125,115.29000091552734 105.98200225830078,119.93099975585938 104.27200317382812,124.5199966430664 C103.44300079345703,126.74199676513672 102.58100128173828,128.95199584960938 101.68399810791016,131.1479949951172 C101.4800033569336,131.6479949951172 101.26799774169922,132.14500427246094 101.06600189208984,132.64599609375 C100.64199829101562,133.6959991455078 101.67900085449219,131.20700073242188 101.60299682617188,131.3769989013672 C101.45700073242188,131.7030029296875 101.3239974975586,132.03500366210938 101.18299865722656,132.36300659179688 C100.72699737548828,133.4219970703125 100.26100158691406,134.47799682617188 99.78800201416016,135.52999877929688 C96.14099884033203,143.63800048828125 91.9749984741211,151.52000427246094 87.19400024414062,159.0189971923828 C84.96399688720703,162.51800537109375 82.5999984741211,165.9320068359375 80.09400177001953,169.24000549316406 C79.9530029296875,169.427001953125 79.80799865722656,169.61199951171875 79.66699981689453,169.8000030517578 C79.01300048828125,170.67799377441406 80.75599670410156,168.4040069580078 80.59400177001953,168.6020050048828 C80.2509994506836,169.0240020751953 79.9229965209961,169.45899963378906 79.58399963378906,169.88499450683594 C78.95899963378906,170.6699981689453 78.32499694824219,171.44900512695312 77.68299865722656,172.2209930419922 C76.36599731445312,173.80299377441406 75.01300048828125,175.35499572753906 73.6240005493164,176.875 C71.01100158691406,179.73699951171875 68.26799774169922,182.48199462890625 65.39900207519531,185.08799743652344 C63.99300003051758,186.36599731445312 62.55699920654297,187.61000061035156 61.09000015258789,188.81700134277344 C60.36199951171875,189.41600036621094 59.62200164794922,189.99899291992188 58.88600158691406,190.58700561523438 C57.60599899291992,191.60899353027344 60.95600128173828,189.031005859375 59.638999938964844,190.0019989013672 C59.233001708984375,190.3000030517578 58.83399963378906,190.60699462890625 58.428001403808594,190.906005859375 C52.42499923706055,195.32899475097656 45.970001220703125,199.13900756835938 39.17100143432617,202.20399475097656 C38.78499984741211,202.3780059814453 38.395999908447266,202.5469970703125 38.00899887084961,202.718994140625 C36.44499969482422,203.41200256347656 38.354000091552734,202.6719970703125 38.959999084472656,202.32400512695312 C38.132999420166016,202.7989959716797 37.09700012207031,203.08299255371094 36.20399856567383,203.4250030517578 C34.486000061035156,204.08299255371094 32.75,204.69400024414062 30.99799919128418,205.25900268554688 C27.395000457763672,206.4199981689453 23.72800064086914,207.38099670410156 20.020000457763672,208.14300537109375 C18.246999740600586,208.50799560546875 16.46500015258789,208.82699584960938 14.675999641418457,209.1020050048828 C14.243000030517578,209.16799926757812 13.809000015258789,209.2270050048828 13.37600040435791,209.29299926757812 C11.70300006866455,209.5469970703125 16.113000869750977,208.95399475097656 14.428000450134277,209.1490020751953 C13.477999687194824,209.25900268554688 12.527999877929688,209.3730010986328 11.57699966430664,209.4669952392578 C7.770999908447266,209.84300231933594 3.9509999752044678,210.01699829101562 0.12800000607967377,210.0240020751953 C-5.363999843597412,210.03399658203125 -10.62600040435791,214.8459930419922 -10.371999740600586,220.5240020751953 C-10.118000030517578,226.20399475097656 -5.757999897003174,231.03500366210938 0.12800000607967377,231.0240020751953z"></path></g></g></g><g mask="url(#__lottie_element_423)" style="display: block;"><g transform="matrix(1,0,0,1,219.96182250976562,242.89703369140625)" opacity="1"><g opacity="1" transform="matrix(1,0,0,1,145.3350067138672,231.81199645996094)"><path fill="rgb(255,255,255)" fill-opacity="1" d=" M0.024000000208616257,219.9969940185547 C82.60700225830078,219.9969940185547 133.91700744628906,135.68299865722656 133.91700744628906,-0.012000000104308128 C133.91700744628906,-135.70700073242188 82.60700225830078,-219.9969940185547 0.024000000208616257,-219.9969940185547 C-82.58300018310547,-219.9969940185547 -133.91700744628906,-135.70700073242188 -133.91600036621094,-0.012000000104308128 C-133.91600036621094,135.68299865722656 -82.58300018310547,219.9969940185547 0.024000000208616257,219.9969940185547z"></path></g><g opacity="1" transform="matrix(1,0,0,1,145.19500732421875,231.28500366210938)"><path fill="rgb(28,28,28)" fill-opacity="1" d=" M0.164000004529953,231.0240020751953 C17.371000289916992,230.99200439453125 34.12300109863281,227.40199279785156 49.792999267578125,220.33700561523438 C64.53099822998047,213.69200134277344 77.77999877929688,203.48500061035156 88.63500213623047,191.5570068359375 C100.88600158691406,178.0959930419922 110.5999984741211,162.46499633789062 118.02899932861328,145.88699340820312 C126.7750015258789,126.37100219726562 132.91700744628906,105.88899993896484 136.9739990234375,84.90499877929688 C141.72900390625,60.308998107910156 144.00799560546875,35.222999572753906 144.468994140625,10.1899995803833 C144.9459991455078,-15.77400016784668 143.48699951171875,-41.71799850463867 139.75100708007812,-67.4209976196289 C136.66400146484375,-88.65799713134766 131.8040008544922,-109.73500061035156 124.22899627685547,-129.8419952392578 C117.58799743652344,-147.4720001220703 109.1520004272461,-164.54100036621094 97.66400146484375,-179.54200744628906 C87.11900329589844,-193.31199645996094 74.62000274658203,-205.41900634765625 59.57899856567383,-214.22999572753906 C44.92599868774414,-222.81300354003906 28.67300033569336,-227.6959991455078 11.829000473022461,-229.39300537109375 C-4.479000091552734,-231.03500366210938 -21.523000717163086,-229.3509979248047 -37.0989990234375,-224.19200134277344 C-53.13999938964844,-218.87899780273438 -67.64800262451172,-210.11199951171875 -80.12100219726562,-198.74200439453125 C-93.05999755859375,-186.947998046875 -103.58699798583984,-172.3719940185547 -111.80799865722656,-156.9669952392578 C-121.447998046875,-138.9040069580078 -128.38099670410156,-119.37000274658203 -133.26400756835938,-99.51599884033203 C-139.02000427246094,-76.11199951171875 -142.1199951171875,-52.0099983215332 -143.48699951171875,-27.966999053955078 C-144.94500732421875,-2.313999891281128 -144.5189971923828,23.531999588012695 -141.89199829101562,49.09700012207031 C-139.5330047607422,72.05799865722656 -135.55799865722656,94.94999694824219 -128.6929931640625,117.01799774169922 C-122.89299774169922,135.66400146484375 -115.12699890136719,154 -104.50900268554688,170.43800354003906 C-94.83300018310547,185.41700744628906 -82.9520034790039,198.60899353027344 -68.56199645996094,209.16700744628906 C-55.74800109863281,218.5679931640625 -40.67499923706055,225.26699829101562 -25.099000930786133,228.43699645996094 C-16.804000854492188,230.125 -8.300999641418457,231.00799560546875 0.164000004529953,231.0240020751953 C5.6570000648498535,231.03399658203125 10.918000221252441,226.18699645996094 10.663999557495117,220.5240020751953 C10.409000396728516,214.8260040283203 6.051000118255615,210.03500366210938 0.164000004529953,210.0240020751953 C-3.7330000400543213,210.01699829101562 -7.629000186920166,209.83599853515625 -11.506999969482422,209.4459991455078 C-12.458000183105469,209.35000610351562 -13.404000282287598,209.22500610351562 -14.354000091552734,209.12100219726562 C-15.057000160217285,209.0449981689453 -11.406999588012695,209.5469970703125 -13.302000045776367,209.26199340820312 C-13.878000259399414,209.1750030517578 -14.454999923706055,209.0919952392578 -15.029999732971191,209 C-16.886999130249023,208.70399475097656 -18.735000610351562,208.36000061035156 -20.572999954223633,207.96600341796875 C-24.201000213623047,207.18899536132812 -27.788999557495117,206.2209930419922 -31.31399917602539,205.06100463867188 C-33.06100082397461,204.48599243164062 -34.792999267578125,203.86399841308594 -36.507999420166016,203.19500732421875 C-36.96799850463867,203.01600646972656 -37.42499923706055,202.8300018310547 -37.88399887084961,202.64700317382812 C-39.47200012207031,202.01300048828125 -37.612998962402344,202.85299682617188 -36.939998626708984,203.0540008544922 C-37.797000885009766,202.7989959716797 -38.64500045776367,202.31300354003906 -39.457000732421875,201.9409942626953 C-46.24100112915039,198.83299255371094 -52.67599868774414,194.9810028076172 -58.65599822998047,190.52099609375 C-58.994998931884766,190.26800537109375 -59.3849983215332,190.031005859375 -59.691001892089844,189.74000549316406 C-59.90700149536133,189.53399658203125 -57.582000732421875,191.39999389648438 -58.42300033569336,190.72000122070312 C-58.64799880981445,190.53799438476562 -58.880001068115234,190.36300659179688 -59.106998443603516,190.1840057373047 C-59.84600067138672,189.59800720214844 -60.57699966430664,189.00399780273438 -61.301998138427734,188.39999389648438 C-62.763999938964844,187.18299865722656 -64.1969985961914,185.9290008544922 -65.5979995727539,184.64199829101562 C-68.51300048828125,181.96499633789062 -71.29499816894531,179.14300537109375 -73.94400024414062,176.2030029296875 C-75.27400207519531,174.7259979248047 -76.56900024414062,173.22000122070312 -77.83300018310547,171.68699645996094 C-78.4229965209961,170.9709930419922 -79.00599670410156,170.2480010986328 -79.58200073242188,169.52000427246094 C-79.7750015258789,169.2760009765625 -79.96399688720703,169.0290069580078 -80.15899658203125,168.78700256347656 C-80.84200286865234,167.9340057373047 -79.08000183105469,170.19400024414062 -79.23300170898438,169.98699951171875 C-79.55899810791016,169.54600524902344 -79.89900207519531,169.11500549316406 -80.22799682617188,168.67599487304688 C-82.7229995727539,165.3489990234375 -85.07599639892578,161.91700744628906 -87.2959976196289,158.39999389648438 C-92.05400085449219,150.86300659179688 -96.1969985961914,142.94500732421875 -99.8219985961914,134.8040008544922 C-100.29299926757812,133.7480010986328 -100.74400329589844,132.6840057373047 -101.20700073242188,131.62399291992188 C-101.65899658203125,130.58900451660156 -100.60199737548828,133.07000732421875 -100.6709976196289,132.89500427246094 C-100.7699966430664,132.6439971923828 -100.87999725341797,132.39700317382812 -100.98200225830078,132.1479949951172 C-101.22200012207031,131.56399536132812 -101.46299743652344,130.97999572753906 -101.69999694824219,130.39500427246094 C-102.59100341796875,128.19000244140625 -103.4469985961914,125.97200012207031 -104.2699966430664,123.74099731445312 C-106.00199890136719,119.04499816894531 -107.58599853515625,114.29399871826172 -109.03600311279297,109.50299835205078 C-112.06900024414062,99.48400115966797 -114.52200317382812,89.29199981689453 -116.5,79.01399993896484 C-117.5719985961914,73.44000244140625 -118.50499725341797,67.83899688720703 -119.31300354003906,62.220001220703125 C-119.40599822998047,61.56999969482422 -119.49600219726562,60.917999267578125 -119.58799743652344,60.266998291015625 C-119.86599731445312,58.29499816894531 -119.30899810791016,62.42100143432617 -119.56600189208984,60.4379997253418 C-119.76599884033203,58.895999908447266 -119.96199798583984,57.35300064086914 -120.14700317382812,55.80799865722656 C-120.49500274658203,52.895999908447266 -120.81099700927734,49.97999954223633 -121.09600067138672,47.06100082397461 C-122.30699920654297,34.683998107910156 -122.9749984741211,22.2549991607666 -123.19499969482422,9.821000099182129 C-123.41999816894531,-2.8949999809265137 -123.197998046875,-15.623000144958496 -122.46600341796875,-28.320999145507812 C-122.11299896240234,-34.459999084472656 -121.63800048828125,-40.59199905395508 -121.02899932861328,-46.709999084472656 C-120.73899841308594,-49.624000549316406 -120.41899871826172,-52.53499984741211 -120.06700134277344,-55.44200134277344 C-119.90699768066406,-56.76499938964844 -119.73799896240234,-58.08599853515625 -119.56600189208984,-59.40700149536133 C-119.31900024414062,-61.31399917602539 -119.87899780273438,-57.14899826049805 -119.54299926757812,-59.5620002746582 C-119.43699645996094,-60.32099914550781 -119.3290023803711,-61.08000183105469 -119.21900177001953,-61.8380012512207 C-116.19599914550781,-82.62300109863281 -111.47200012207031,-103.24500274658203 -104.17400360107422,-122.96399688720703 C-103.31800079345703,-125.2770004272461 -102.4260025024414,-127.57599639892578 -101.49600219726562,-129.86000061035156 C-101.29199981689453,-130.36099243164062 -101.08399963378906,-130.85899353027344 -100.87899780273438,-131.36000061035156 C-100.19300079345703,-133.0330047607422 -101.81800079345703,-129.1790008544922 -101.10199737548828,-130.83299255371094 C-100.60800170898438,-131.9739990234375 -100.11499786376953,-133.11500549316406 -99.60600280761719,-134.25 C-97.76599884033203,-138.35400390625 -95.79299926757812,-142.3990020751953 -93.67500305175781,-146.3679962158203 C-89.6500015258789,-153.91099548339844 -85.0979995727539,-161.1840057373047 -79.94400024414062,-168.00900268554688 C-79.67500305175781,-168.36599731445312 -78.58300018310547,-169.78500366210938 -79.76799774169922,-168.25100708007812 C-80.95099639892578,-166.71800231933594 -79.85900115966797,-168.12600708007812 -79.58200073242188,-168.4759979248047 C-78.91100311279297,-169.3249969482422 -78.2300033569336,-170.16600036621094 -77.53900146484375,-170.99899291992188 C-76.27100372314453,-172.5260009765625 -74.97200012207031,-174.02499389648438 -73.63800048828125,-175.4949951171875 C-71.03099822998047,-178.3679962158203 -68.2969970703125,-181.125 -65.43499755859375,-183.74400329589844 C-64.03199768066406,-185.0279998779297 -62.597999572753906,-186.2779998779297 -61.13399887084961,-187.49200439453125 C-60.409000396728516,-188.093994140625 -59.67300033569336,-188.68299865722656 -58.93600082397461,-189.27099609375 C-57.62200164794922,-190.3179931640625 -59.11600112915039,-189.19200134277344 -59.691001892089844,-188.69200134277344 C-59.2599983215332,-189.06700134277344 -58.76900100708008,-189.38999938964844 -58.310001373291016,-189.72999572753906 C-55.32600021362305,-191.93699645996094 -52.233001708984375,-193.9929962158203 -49.03799819946289,-195.88099670410156 C-45.874000549316406,-197.75100708007812 -42.611000061035156,-199.45399475097656 -39.26599884033203,-200.97900390625 C-38.81700134277344,-201.18299865722656 -38.3650016784668,-201.38499450683594 -37.91299819946289,-201.58299255371094 C-37.48400115966797,-201.77099609375 -35.94200134277344,-202.4250030517578 -37.80500030517578,-201.63800048828125 C-39.66899871826172,-200.8509979248047 -38.12300109863281,-201.49899291992188 -37.68899917602539,-201.6750030517578 C-37.23099899291992,-201.86000061035156 -36.770999908447266,-202.04200744628906 -36.310001373291016,-202.2209930419922 C-34.52799987792969,-202.91099548339844 -32.72700119018555,-203.552001953125 -30.90999984741211,-204.14100646972656 C-27.378000259399414,-205.28700256347656 -23.784000396728516,-206.24099731445312 -20.150999069213867,-207.0030059814453 C-18.309999465942383,-207.38900756835938 -16.45800018310547,-207.7270050048828 -14.598999977111816,-208.01499938964844 C-14.166999816894531,-208.08299255371094 -13.734999656677246,-208.1439971923828 -13.302000045776367,-208.20899963378906 C-11.098999977111816,-208.54200744628906 -15.770000457763672,-207.9080047607422 -14.137999534606934,-208.0959930419922 C-13.187999725341797,-208.20599365234375 -12.23799991607666,-208.32000732421875 -11.28600025177002,-208.41400146484375 C-3.4639999866485596,-209.18699645996094 4.453000068664551,-209.16600036621094 12.270000457763672,-208.3470001220703 C13.147000312805176,-208.25599670410156 14.020000457763672,-208.1300048828125 14.895999908447266,-208.04100036621094 C10.788999557495117,-208.45799255371094 14.503000259399414,-208.0850067138672 15.567999839782715,-207.91299438476562 C17.42300033569336,-207.61399841308594 19.26799964904785,-207.26499938964844 21.104000091552734,-206.8679962158203 C24.79800033569336,-206.07000732421875 28.448999404907227,-205.07200622558594 32.034000396728516,-203.875 C33.77799987792969,-203.29299926757812 35.505001068115234,-202.66400146484375 37.215999603271484,-201.98899841308594 C37.61000061035156,-201.83399963378906 38.00199890136719,-201.6719970703125 38.395999908447266,-201.51499938964844 C40.1150016784668,-200.8300018310547 36.83100128173828,-202.2010040283203 37.44900131225586,-201.9199981689453 C38.347999572753906,-201.51100158691406 39.257999420166016,-201.1280059814453 40.154998779296875,-200.71299743652344 C43.4900016784668,-199.16799926757812 46.74300003051758,-197.44400024414062 49.895999908447266,-195.5540008544922 C53.145999908447266,-193.60699462890625 56.268001556396484,-191.4709930419922 59.308998107910156,-189.21400451660156 C60.65700149536133,-188.21400451660156 59.185001373291016,-189.3780059814453 58.558998107910156,-189.80499267578125 C58.915000915527344,-189.56300354003906 59.244998931884766,-189.2689971923828 59.582000732421875,-189.00100708007812 C60.37799835205078,-188.36900329589844 61.16400146484375,-187.7259979248047 61.94200134277344,-187.072998046875 C63.400001525878906,-185.8489990234375 64.8280029296875,-184.58900451660156 66.2249984741211,-183.29600524902344 C69.0770034790039,-180.65699768066406 71.8010025024414,-177.8800048828125 74.39600372314453,-174.98899841308594 C75.7239990234375,-173.50999450683594 77.01799774169922,-172 78.27999877929688,-170.46400451660156 C78.91799926757812,-169.68600463867188 79.54399871826172,-168.8990020751953 80.16899871826172,-168.11000061035156 C81.35199737548828,-166.6179962158203 79.2699966430664,-169.29800415039062 79.6729965209961,-168.7570037841797 C80.0479965209961,-168.25399780273438 80.43199920654297,-167.75799560546875 80.80599975585938,-167.25599670410156 C85.87899780273438,-160.44400024414062 90.36100006103516,-153.2010040283203 94.32599639892578,-145.6929931640625 C96.4729995727539,-141.62899780273438 98.47000122070312,-137.48500061035156 100.3280029296875,-133.27999877929688 C100.76000213623047,-132.30299377441406 101.16899871826172,-131.3159942626953 101.60199737548828,-130.33999633789062 C101.6780014038086,-130.16900634765625 100.64099884033203,-132.65899658203125 101.06500244140625,-131.60899353027344 C101.16600036621094,-131.35800170898438 101.27200317382812,-131.11000061035156 101.375,-130.86099243164062 C101.6510009765625,-130.1929931640625 101.9219970703125,-129.5240020751953 102.19100189208984,-128.85299682617188 C103.0780029296875,-126.64399719238281 103.93099975585938,-124.41999816894531 104.75,-122.18399810791016 C108.23799896240234,-112.65599822998047 111.12100219726562,-102.91100311279297 113.51399993896484,-93.0530014038086 C116.09100341796875,-82.43499755859375 118.0979995727539,-71.68099975585938 119.64099884033203,-60.86399841308594 C119.75,-60.104000091552734 119.84300231933594,-59.34199905395508 119.95899963378906,-58.58300018310547 C119.97100067138672,-58.50199890136719 119.6510009765625,-60.92900085449219 119.80500030517578,-59.736000061035156 C119.84700012207031,-59.40700149536133 119.89099884033203,-59.077999114990234 119.93299865722656,-58.749000549316406 C120.11900329589844,-57.316001892089844 120.2969970703125,-55.88100051879883 120.46700286865234,-54.44499969482422 C120.82599639892578,-51.41699981689453 121.1510009765625,-48.3849983215332 121.44300079345703,-45.349998474121094 C122.02100372314453,-39.32899856567383 122.47200012207031,-33.29600143432617 122.80599975585938,-27.256999969482422 C124.19300079345703,-2.177000045776367 123.78199768066406,23.082000732421875 121.2770004272461,48.08000183105469 C120.98500061035156,50.992000579833984 120.66200256347656,53.900001525878906 120.30799865722656,56.80500030517578 C120.13400268554688,58.236000061035156 119.93599700927734,59.66400146484375 119.76100158691406,61.095001220703125 C119.75,61.176998138427734 120.08399963378906,58.75299835205078 119.91500091552734,59.941001892089844 C119.86900329589844,60.266998291015625 119.82499694824219,60.59299850463867 119.77899932861328,60.91899871826172 C119.65799713134766,61.7859992980957 119.53399658203125,62.6510009765625 119.40699768066406,63.516998291015625 C118.5979995727539,69.01100158691406 117.66799926757812,74.48899841308594 116.60399627685547,79.94000244140625 C114.58499908447266,90.28199768066406 112.08200073242188,100.53500366210938 108.98600006103516,110.60900115966797 C107.5469970703125,115.29000091552734 105.9800033569336,119.93099975585938 104.2699966430664,124.5199966430664 C103.44200134277344,126.74199676513672 102.5790023803711,128.95199584960938 101.68199920654297,131.1479949951172 C101.47799682617188,131.6479949951172 101.26699829101562,132.14500427246094 101.06500244140625,132.64599609375 C100.64199829101562,133.6959991455078 101.6780014038086,131.20700073242188 101.60199737548828,131.3769989013672 C101.45700073242188,131.70399475097656 101.3219985961914,132.03500366210938 101.18099975585938,132.36300659179688 C100.72599792480469,133.4219970703125 100.26100158691406,134.47799682617188 99.78800201416016,135.52999877929688 C96.14299774169922,143.63800048828125 91.97699737548828,151.52000427246094 87.197998046875,159.0189971923828 C84.96900177001953,162.51800537109375 82.60399627685547,165.9320068359375 80.0999984741211,169.24000549316406 C79.95800018310547,169.427001953125 79.81400299072266,169.61199951171875 79.6729965209961,169.8000030517578 C79.0199966430664,170.6790008544922 80.76300048828125,168.4040069580078 80.60199737548828,168.6020050048828 C80.25900268554688,169.02499389648438 79.93000030517578,169.45899963378906 79.59100341796875,169.88499450683594 C78.96600341796875,170.6699981689453 78.33200073242188,171.44900512695312 77.69000244140625,172.2209930419922 C76.3740005493164,173.80299377441406 75.02200317382812,175.35499572753906 73.63400268554688,176.87600708007812 C71.02100372314453,179.73699951171875 68.28099822998047,182.48199462890625 65.41300201416016,185.08799743652344 C64.00700378417969,186.36599731445312 62.56999969482422,187.61000061035156 61.10300064086914,188.81700134277344 C60.375999450683594,189.41600036621094 59.637001037597656,189.99899291992188 58.9010009765625,190.58700561523438 C57.62099838256836,191.61000061035156 60.97100067138672,189.031005859375 59.65399932861328,190.0019989013672 C59.249000549316406,190.30099487304688 58.849998474121094,190.60699462890625 58.444000244140625,190.906005859375 C52.44300079345703,195.32899475097656 45.99100112915039,199.13900756835938 39.194000244140625,202.20399475097656 C38.80799865722656,202.3780059814453 38.41999816894531,202.5469970703125 38.03300094604492,202.718994140625 C36.46900177001953,203.41200256347656 38.37699890136719,202.67100524902344 38.983001708984375,202.32400512695312 C38.154998779296875,202.79800415039062 37.12099838256836,203.08299255371094 36.229000091552734,203.4250030517578 C34.5099983215332,204.08299255371094 32.77399826049805,204.69400024414062 31.023000717163086,205.25900268554688 C27.42099952697754,206.4199981689453 23.7549991607666,207.38099670410156 20.04800033569336,208.14300537109375 C18.275999069213867,208.50799560546875 16.4950008392334,208.82699584960938 14.706999778747559,209.1020050048828 C14.27400016784668,209.16799926757812 13.840999603271484,209.2270050048828 13.409000396728516,209.29299926757812 C11.736000061035156,209.5469970703125 16.145000457763672,208.95399475097656 14.460000038146973,209.1490020751953 C13.510000228881836,209.25900268554688 12.560999870300293,209.3730010986328 11.609000205993652,209.4669952392578 C7.804999828338623,209.84300231933594 3.9860000610351562,210.01699829101562 0.164000004529953,210.0240020751953 C-5.328000068664551,210.03399658203125 -10.59000015258789,214.8459930419922 -10.336000442504883,220.5240020751953 C-10.081999778747559,226.20399475097656 -5.7220001220703125,231.03500366210938 0.164000004529953,231.0240020751953z"></path></g></g></g><g transform="matrix(1,0,0,1,487.7947998046875,246.13400268554688)" opacity="1" style="display: block;"><g opacity="1" transform="matrix(1,0,0,1,145.20700073242188,231.28500366210938)"><path fill="rgb(26,26,26)" fill-opacity="1" d=" M0.12800000607967377,231.0240020751953 C17.339000701904297,230.99200439453125 34.09600067138672,227.40199279785156 49.77000045776367,220.33700561523438 C64.51300048828125,213.69200134277344 77.76599884033203,203.48599243164062 88.6259994506836,191.5570068359375 C100.87899780273438,178.0970001220703 110.5979995727539,162.46600341796875 118.02999877929688,145.88699340820312 C126.77899932861328,126.37200164794922 132.92300415039062,105.88899993896484 136.98199462890625,84.90499877929688 C141.73899841308594,60.308998107910156 144.0189971923828,35.222999572753906 144.47999572753906,10.1899995803833 C144.95799255371094,-15.77400016784668 143.4969940185547,-41.71900177001953 139.75900268554688,-67.4209976196289 C136.67100524902344,-88.65899658203125 131.80799865722656,-109.73500061035156 124.23100280761719,-129.8419952392578 C117.58599853515625,-147.47300720214844 109.14900207519531,-164.54100036621094 97.65799713134766,-179.54200744628906 C87.10900115966797,-193.31199645996094 74.60600280761719,-205.4199981689453 59.56100082397461,-214.22999572753906 C44.90299987792969,-222.81300354003906 28.645999908447266,-227.6959991455078 11.79800033569336,-229.39300537109375 C-4.51200008392334,-231.03500366210938 -21.555999755859375,-229.3520050048828 -37.13199996948242,-224.19200134277344 C-53.172000885009766,-218.87899780273438 -67.68099975585938,-210.11199951171875 -80.1520004272461,-198.74200439453125 C-93.08799743652344,-186.947998046875 -103.61199951171875,-172.3719940185547 -111.83100128173828,-156.9669952392578 C-121.46800231933594,-138.9029998779297 -128.3990020751953,-119.36900329589844 -133.27999877929688,-99.51599884033203 C-139.03500366210938,-76.11100006103516 -142.13299560546875,-52.0099983215332 -143.49899291992188,-27.966999053955078 C-144.95700073242188,-2.313999891281128 -144.531005859375,23.531999588012695 -141.90499877929688,49.09700012207031 C-139.5469970703125,72.05799865722656 -135.57400512695312,94.94999694824219 -128.71200561523438,117.01799774169922 C-122.91300201416016,135.66400146484375 -115.1500015258789,154 -104.53399658203125,170.43800354003906 C-94.86000061035156,185.41700744628906 -82.98100280761719,198.60899353027344 -68.59300231933594,209.16700744628906 C-55.78099822998047,218.56900024414062 -40.70899963378906,225.26699829101562 -25.134000778198242,228.43699645996094 C-16.839000701904297,230.125 -8.336999893188477,231.00799560546875 0.12800000607967377,231.0240020751953 C5.620999813079834,231.03399658203125 10.881999969482422,226.18699645996094 10.628000259399414,220.5240020751953 C10.373000144958496,214.8260040283203 6.014999866485596,210.03500366210938 0.12800000607967377,210.0240020751953 C-3.7690000534057617,210.01699829101562 -7.664999961853027,209.83599853515625 -11.543000221252441,209.4459991455078 C-12.494000434875488,209.35000610351562 -13.4399995803833,209.22500610351562 -14.390000343322754,209.12100219726562 C-15.093000411987305,209.0449981689453 -11.442999839782715,209.5469970703125 -13.338000297546387,209.26199340820312 C-13.913999557495117,209.1750030517578 -14.491000175476074,209.0919952392578 -15.065999984741211,209 C-16.922000885009766,208.70399475097656 -18.770999908447266,208.36000061035156 -20.608999252319336,207.96600341796875 C-24.23699951171875,207.18899536132812 -27.822999954223633,206.2209930419922 -31.347999572753906,205.06100463867188 C-33.095001220703125,204.48599243164062 -34.82699966430664,203.86399841308594 -36.54100036621094,203.19500732421875 C-37.000999450683594,203.01600646972656 -37.459999084472656,202.8300018310547 -37.91999816894531,202.64700317382812 C-39.50699996948242,202.01199340820312 -37.64799880981445,202.85400390625 -36.974998474121094,203.0540008544922 C-37.83100128173828,202.7989959716797 -38.67900085449219,202.31300354003906 -39.49100112915039,201.9409942626953 C-46.27399826049805,198.83299255371094 -52.70800018310547,194.9810028076172 -58.6870002746582,190.52099609375 C-59.0260009765625,190.26800537109375 -59.41699981689453,190.031005859375 -59.722999572753906,189.74000549316406 C-59.939998626708984,189.53399658203125 -57.612998962402344,191.4010009765625 -58.45399856567383,190.72000122070312 C-58.67900085449219,190.53799438476562 -58.9109992980957,190.36300659179688 -59.137001037597656,190.1840057373047 C-59.87699890136719,189.59800720214844 -60.608001708984375,189.00399780273438 -61.332000732421875,188.39999389648438 C-62.79399871826172,187.18299865722656 -64.22599792480469,185.9290008544922 -65.62699890136719,184.64199829101562 C-68.54100036621094,181.96400451660156 -71.322998046875,179.14300537109375 -73.97100067138672,176.2030029296875 C-75.30000305175781,174.7259979248047 -76.5979995727539,173.22000122070312 -77.86100006103516,171.68699645996094 C-78.45099639892578,170.9709930419922 -79.03299713134766,170.2480010986328 -79.60900115966797,169.52000427246094 C-79.802001953125,169.2760009765625 -79.99199676513672,169.0290069580078 -80.18599700927734,168.78700256347656 C-80.87000274658203,167.93299865722656 -79.10700225830078,170.19400024414062 -79.26000213623047,169.98699951171875 C-79.58499908447266,169.54600524902344 -79.92500305175781,169.11500549316406 -80.25399780273438,168.67599487304688 C-82.74800109863281,165.3489990234375 -85.0999984741211,161.91700744628906 -87.31900024414062,158.39999389648438 C-92.0770034790039,150.86300659179688 -96.22000122070312,142.94500732421875 -99.84300231933594,134.8040008544922 C-100.31400299072266,133.7480010986328 -100.76499938964844,132.6840057373047 -101.22799682617188,131.62399291992188 C-101.67900085449219,130.58900451660156 -100.62300109863281,133.07000732421875 -100.69200134277344,132.89500427246094 C-100.79000091552734,132.6439971923828 -100.9000015258789,132.39700317382812 -101.00199890136719,132.1479949951172 C-101.24199676513672,131.56399536132812 -101.48300170898438,130.97999572753906 -101.72000122070312,130.39500427246094 C-102.61100006103516,128.19000244140625 -103.46700286865234,125.97200012207031 -104.28900146484375,123.74099731445312 C-106.02100372314453,119.04499816894531 -107.60399627685547,114.29399871826172 -109.05400085449219,109.50299835205078 C-112.08599853515625,99.48400115966797 -114.53700256347656,89.29199981689453 -116.51499938964844,79.01399993896484 C-117.58699798583984,73.44000244140625 -118.5199966430664,67.83899688720703 -119.3270034790039,62.220001220703125 C-119.41999816894531,61.56999969482422 -119.51000213623047,60.917999267578125 -119.60199737548828,60.266998291015625 C-119.87999725341797,58.29499816894531 -119.322998046875,62.42100143432617 -119.58000183105469,60.4379997253418 C-119.77999877929688,58.895999908447266 -119.97599792480469,57.35300064086914 -120.16000366210938,55.80799865722656 C-120.50800323486328,52.895999908447266 -120.8239974975586,49.97999954223633 -121.10900115966797,47.06100082397461 C-122.31999969482422,34.68299865722656 -122.98699951171875,22.2549991607666 -123.20700073242188,9.821000099182129 C-123.43199920654297,-2.8949999809265137 -123.20999908447266,-15.623000144958496 -122.47899627685547,-28.320999145507812 C-122.125,-34.459999084472656 -121.6510009765625,-40.59199905395508 -121.04199981689453,-46.709999084472656 C-120.75199890136719,-49.624000549316406 -120.43299865722656,-52.53499984741211 -120.08100128173828,-55.44200134277344 C-119.91999816894531,-56.76499938964844 -119.7509994506836,-58.08599853515625 -119.58000183105469,-59.40700149536133 C-119.33300018310547,-61.31399917602539 -119.89199829101562,-57.14899826049805 -119.55699920654297,-59.5620002746582 C-119.45099639892578,-60.32099914550781 -119.34300231933594,-61.08000183105469 -119.23300170898438,-61.8380012512207 C-116.21199798583984,-82.62200164794922 -111.48899841308594,-103.24500274658203 -104.19300079345703,-122.96399688720703 C-103.33799743652344,-125.2770004272461 -102.4469985961914,-127.57599639892578 -101.51699829101562,-129.86000061035156 C-101.31300354003906,-130.36099243164062 -101.1050033569336,-130.85899353027344 -100.9000015258789,-131.36000061035156 C-100.21499633789062,-133.0330047607422 -101.83899688720703,-129.1790008544922 -101.1240005493164,-130.83299255371094 C-100.62999725341797,-131.9739990234375 -100.13600158691406,-133.11500549316406 -99.62699890136719,-134.25 C-97.78800201416016,-138.35400390625 -95.81600189208984,-142.3990020751953 -93.6989974975586,-146.3679962158203 C-89.67500305175781,-153.91099548339844 -85.1240005493164,-161.18299865722656 -79.97000122070312,-168.00900268554688 C-79.70099639892578,-168.36599731445312 -78.60900115966797,-169.78500366210938 -79.79399871826172,-168.25100708007812 C-80.97799682617188,-166.71800231933594 -79.88600158691406,-168.12600708007812 -79.60900115966797,-168.4759979248047 C-78.93800354003906,-169.3249969482422 -78.25700378417969,-170.16600036621094 -77.56600189208984,-170.99899291992188 C-76.29900360107422,-172.5260009765625 -74.9990005493164,-174.02499389648438 -73.66600036621094,-175.4949951171875 C-71.05999755859375,-178.3679962158203 -68.3270034790039,-181.125 -65.46499633789062,-183.74400329589844 C-64.06300354003906,-185.0279998779297 -62.62799835205078,-186.2779998779297 -61.165000915527344,-187.49200439453125 C-60.43899917602539,-188.093994140625 -59.70399856567383,-188.68299865722656 -58.96699905395508,-189.27099609375 C-57.65399932861328,-190.3179931640625 -59.14799880981445,-189.1909942626953 -59.722999572753906,-188.69200134277344 C-59.29199981689453,-189.06700134277344 -58.80099868774414,-189.38999938964844 -58.34199905395508,-189.72999572753906 C-55.35900115966797,-191.93699645996094 -52.26499938964844,-193.9929962158203 -49.07099914550781,-195.88099670410156 C-45.90599822998047,-197.75100708007812 -42.643001556396484,-199.45399475097656 -39.29899978637695,-200.97900390625 C-38.8489990234375,-201.18299865722656 -38.39899826049805,-201.38499450683594 -37.946998596191406,-201.58299255371094 C-37.518001556396484,-201.77099609375 -35.974998474121094,-202.4250030517578 -37.8380012512207,-201.63800048828125 C-39.70199966430664,-200.8509979248047 -38.15800094604492,-201.49899291992188 -37.722999572753906,-201.6750030517578 C-37.26499938964844,-201.86000061035156 -36.80400085449219,-202.04200744628906 -36.34299850463867,-202.2209930419922 C-34.5620002746582,-202.91099548339844 -32.762001037597656,-203.552001953125 -30.944000244140625,-204.14100646972656 C-27.413000106811523,-205.28700256347656 -23.81999969482422,-206.24099731445312 -20.187000274658203,-207.0030059814453 C-18.344999313354492,-207.38900756835938 -16.493999481201172,-207.7270050048828 -14.635000228881836,-208.01499938964844 C-14.20300006866455,-208.08299255371094 -13.770000457763672,-208.1439971923828 -13.338000297546387,-208.20899963378906 C-11.135000228881836,-208.54200744628906 -15.805000305175781,-207.9080047607422 -14.17300033569336,-208.0959930419922 C-13.222999572753906,-208.20599365234375 -12.27299976348877,-208.32000732421875 -11.321999549865723,-208.41400146484375 C-3.497999906539917,-209.18699645996094 4.419000148773193,-209.16600036621094 12.23799991607666,-208.3470001220703 C13.11400032043457,-208.25599670410156 13.987000465393066,-208.1300048828125 14.86299991607666,-208.04100036621094 C10.755999565124512,-208.45799255371094 14.472000122070312,-208.0850067138672 15.538000106811523,-207.91299438476562 C17.392000198364258,-207.61399841308594 19.239999771118164,-207.26499938964844 21.076000213623047,-206.8679962158203 C24.770999908447266,-206.07000732421875 28.422000885009766,-205.07200622558594 32.00699996948242,-203.875 C33.75199890136719,-203.29299926757812 35.48099899291992,-202.66400146484375 37.19200134277344,-201.98899841308594 C37.58599853515625,-201.83399963378906 37.97800064086914,-201.6719970703125 38.37099838256836,-201.51499938964844 C40.090999603271484,-200.8300018310547 36.80799865722656,-202.1999969482422 37.42599868774414,-201.9199981689453 C38.32500076293945,-201.51100158691406 39.23699951171875,-201.12899780273438 40.13399887084961,-200.71299743652344 C43.470001220703125,-199.16799926757812 46.72200012207031,-197.44400024414062 49.875999450683594,-195.5540008544922 C53.12699890136719,-193.60699462890625 56.25,-191.4709930419922 59.292999267578125,-189.21400451660156 C60.63999938964844,-188.21400451660156 59.16899871826172,-189.37600708007812 58.54399871826172,-189.80499267578125 C58.89899826049805,-189.56100463867188 59.229000091552734,-189.2689971923828 59.56700134277344,-189.00100708007812 C60.36199951171875,-188.36900329589844 61.14899826049805,-187.7259979248047 61.928001403808594,-187.072998046875 C63.387001037597656,-185.8489990234375 64.81600189208984,-184.58900451660156 66.21399688720703,-183.29600524902344 C69.06700134277344,-180.65699768066406 71.79100036621094,-177.8800048828125 74.38700103759766,-174.98899841308594 C75.71499633789062,-173.50999450683594 77.01000213623047,-172 78.27200317382812,-170.46400451660156 C78.91000366210938,-169.68600463867188 79.53700256347656,-168.8990020751953 80.16300201416016,-168.11000061035156 C81.34700012207031,-166.6179962158203 79.26399993896484,-169.29800415039062 79.66699981689453,-168.7570037841797 C80.04199981689453,-168.25399780273438 80.4260025024414,-167.75799560546875 80.8010025024414,-167.25599670410156 C85.875,-160.44400024414062 90.35700225830078,-153.2010040283203 94.3239974975586,-145.6929931640625 C96.47200012207031,-141.62899780273438 98.46900177001953,-137.48500061035156 100.3290023803711,-133.27999877929688 C100.76100158691406,-132.3040008544922 101.16799926757812,-131.31500244140625 101.60299682617188,-130.33999633789062 C101.67900085449219,-130.16900634765625 100.64199829101562,-132.6580047607422 101.06600189208984,-131.60899353027344 C101.16699981689453,-131.35899353027344 101.27400207519531,-131.11000061035156 101.37699890136719,-130.86099243164062 C101.65299987792969,-130.1929931640625 101.92400360107422,-129.5240020751953 102.19400024414062,-128.85299682617188 C103.08100128173828,-126.64399719238281 103.93399810791016,-124.41999816894531 104.75299835205078,-122.18399810791016 C108.24199676513672,-112.65599822998047 111.12699890136719,-102.91200256347656 113.5199966430664,-93.0530014038086 C116.0979995727539,-82.43499755859375 118.10600280761719,-71.68099975585938 119.6500015258789,-60.86399841308594 C119.75800323486328,-60.104000091552734 119.85299682617188,-59.34199905395508 119.97000122070312,-58.58300018310547 C119.98200225830078,-58.50299835205078 119.66000366210938,-60.92900085449219 119.81400299072266,-59.736000061035156 C119.85600280761719,-59.40700149536133 119.9010009765625,-59.077999114990234 119.94400024414062,-58.749000549316406 C120.12999725341797,-57.316001892089844 120.30799865722656,-55.88100051879883 120.47799682617188,-54.44499969482422 C120.83699798583984,-51.41699981689453 121.16200256347656,-48.3849983215332 121.4540023803711,-45.349998474121094 C122.03299713134766,-39.32899856567383 122.48400115966797,-33.29600143432617 122.81800079345703,-27.256999969482422 C124.20600128173828,-2.177000045776367 123.79399871826172,23.082000732421875 121.28700256347656,48.08000183105469 C120.99500274658203,50.992000579833984 120.6729965209961,53.900001525878906 120.31800079345703,56.80500030517578 C120.14399719238281,58.236000061035156 119.9469985961914,59.66400146484375 119.7699966430664,61.095001220703125 C119.76000213623047,61.176998138427734 120.09400177001953,58.75299835205078 119.92500305175781,59.941001892089844 C119.87799835205078,60.266998291015625 119.83399963378906,60.59299850463867 119.78800201416016,60.91899871826172 C119.66699981689453,61.7859992980957 119.54199981689453,62.6510009765625 119.41500091552734,63.516998291015625 C118.60600280761719,69.01100158691406 117.6760025024414,74.48899841308594 116.61100006103516,79.93900299072266 C114.59100341796875,90.28199768066406 112.08899688720703,100.53500366210938 108.99099731445312,110.60900115966797 C107.552001953125,115.29000091552734 105.98200225830078,119.93099975585938 104.27200317382812,124.5199966430664 C103.44300079345703,126.74199676513672 102.58100128173828,128.95199584960938 101.68399810791016,131.1479949951172 C101.4800033569336,131.6479949951172 101.26799774169922,132.14500427246094 101.06600189208984,132.64599609375 C100.64199829101562,133.6959991455078 101.67900085449219,131.20700073242188 101.60299682617188,131.3769989013672 C101.45700073242188,131.7030029296875 101.3239974975586,132.03500366210938 101.18299865722656,132.36300659179688 C100.72699737548828,133.4219970703125 100.26100158691406,134.47799682617188 99.78800201416016,135.52999877929688 C96.14099884033203,143.63800048828125 91.9749984741211,151.52000427246094 87.19400024414062,159.0189971923828 C84.96399688720703,162.51800537109375 82.5999984741211,165.9320068359375 80.09400177001953,169.24000549316406 C79.9530029296875,169.427001953125 79.80799865722656,169.61199951171875 79.66699981689453,169.8000030517578 C79.01300048828125,170.67799377441406 80.75599670410156,168.4040069580078 80.59400177001953,168.6020050048828 C80.2509994506836,169.0240020751953 79.9229965209961,169.45899963378906 79.58399963378906,169.88499450683594 C78.95899963378906,170.6699981689453 78.32499694824219,171.44900512695312 77.68299865722656,172.2209930419922 C76.36599731445312,173.80299377441406 75.01300048828125,175.35499572753906 73.6240005493164,176.875 C71.01100158691406,179.73699951171875 68.26799774169922,182.48199462890625 65.39900207519531,185.08799743652344 C63.99300003051758,186.36599731445312 62.55699920654297,187.61000061035156 61.09000015258789,188.81700134277344 C60.36199951171875,189.41600036621094 59.62200164794922,189.99899291992188 58.88600158691406,190.58700561523438 C57.60599899291992,191.60899353027344 60.95600128173828,189.031005859375 59.638999938964844,190.0019989013672 C59.233001708984375,190.3000030517578 58.83399963378906,190.60699462890625 58.428001403808594,190.906005859375 C52.42499923706055,195.32899475097656 45.970001220703125,199.13900756835938 39.17100143432617,202.20399475097656 C38.78499984741211,202.3780059814453 38.395999908447266,202.5469970703125 38.00899887084961,202.718994140625 C36.44499969482422,203.41200256347656 38.354000091552734,202.6719970703125 38.959999084472656,202.32400512695312 C38.132999420166016,202.7989959716797 37.09700012207031,203.08299255371094 36.20399856567383,203.4250030517578 C34.486000061035156,204.08299255371094 32.75,204.69400024414062 30.99799919128418,205.25900268554688 C27.395000457763672,206.4199981689453 23.72800064086914,207.38099670410156 20.020000457763672,208.14300537109375 C18.246999740600586,208.50799560546875 16.46500015258789,208.82699584960938 14.675999641418457,209.1020050048828 C14.243000030517578,209.16799926757812 13.809000015258789,209.2270050048828 13.37600040435791,209.29299926757812 C11.70300006866455,209.5469970703125 16.113000869750977,208.95399475097656 14.428000450134277,209.1490020751953 C13.477999687194824,209.25900268554688 12.527999877929688,209.3730010986328 11.57699966430664,209.4669952392578 C7.770999908447266,209.84300231933594 3.9509999752044678,210.01699829101562 0.12800000607967377,210.0240020751953 C-5.363999843597412,210.03399658203125 -10.62600040435791,214.8459930419922 -10.371999740600586,220.5240020751953 C-10.118000030517578,226.20399475097656 -5.757999897003174,231.03500366210938 0.12800000607967377,231.0240020751953z"></path></g></g><g transform="matrix(1,0,0,1,219.9608154296875,246.13400268554688)" opacity="1" style="display: block;"><g opacity="1" transform="matrix(1,0,0,1,145.19500732421875,231.28500366210938)"><path fill="rgb(28,28,28)" fill-opacity="1" d=" M0.164000004529953,231.0240020751953 C17.371000289916992,230.99200439453125 34.12300109863281,227.40199279785156 49.792999267578125,220.33700561523438 C64.53099822998047,213.69200134277344 77.77999877929688,203.48500061035156 88.63500213623047,191.5570068359375 C100.88600158691406,178.0959930419922 110.5999984741211,162.46499633789062 118.02899932861328,145.88699340820312 C126.7750015258789,126.37100219726562 132.91700744628906,105.88899993896484 136.9739990234375,84.90499877929688 C141.72900390625,60.308998107910156 144.00799560546875,35.222999572753906 144.468994140625,10.1899995803833 C144.9459991455078,-15.77400016784668 143.48699951171875,-41.71799850463867 139.75100708007812,-67.4209976196289 C136.66400146484375,-88.65799713134766 131.8040008544922,-109.73500061035156 124.22899627685547,-129.8419952392578 C117.58799743652344,-147.4720001220703 109.1520004272461,-164.54100036621094 97.66400146484375,-179.54200744628906 C87.11900329589844,-193.31199645996094 74.62000274658203,-205.41900634765625 59.57899856567383,-214.22999572753906 C44.92599868774414,-222.81300354003906 28.67300033569336,-227.6959991455078 11.829000473022461,-229.39300537109375 C-4.479000091552734,-231.03500366210938 -21.523000717163086,-229.3509979248047 -37.0989990234375,-224.19200134277344 C-53.13999938964844,-218.87899780273438 -67.64800262451172,-210.11199951171875 -80.12100219726562,-198.74200439453125 C-93.05999755859375,-186.947998046875 -103.58699798583984,-172.3719940185547 -111.80799865722656,-156.9669952392578 C-121.447998046875,-138.9040069580078 -128.38099670410156,-119.37000274658203 -133.26400756835938,-99.51599884033203 C-139.02000427246094,-76.11199951171875 -142.1199951171875,-52.0099983215332 -143.48699951171875,-27.966999053955078 C-144.94500732421875,-2.313999891281128 -144.5189971923828,23.531999588012695 -141.89199829101562,49.09700012207031 C-139.5330047607422,72.05799865722656 -135.55799865722656,94.94999694824219 -128.6929931640625,117.01799774169922 C-122.89299774169922,135.66400146484375 -115.12699890136719,154 -104.50900268554688,170.43800354003906 C-94.83300018310547,185.41700744628906 -82.9520034790039,198.60899353027344 -68.56199645996094,209.16700744628906 C-55.74800109863281,218.5679931640625 -40.67499923706055,225.26699829101562 -25.099000930786133,228.43699645996094 C-16.804000854492188,230.125 -8.300999641418457,231.00799560546875 0.164000004529953,231.0240020751953 C5.6570000648498535,231.03399658203125 10.918000221252441,226.18699645996094 10.663999557495117,220.5240020751953 C10.409000396728516,214.8260040283203 6.051000118255615,210.03500366210938 0.164000004529953,210.0240020751953 C-3.7330000400543213,210.01699829101562 -7.629000186920166,209.83599853515625 -11.506999969482422,209.4459991455078 C-12.458000183105469,209.35000610351562 -13.404000282287598,209.22500610351562 -14.354000091552734,209.12100219726562 C-15.057000160217285,209.0449981689453 -11.406999588012695,209.5469970703125 -13.302000045776367,209.26199340820312 C-13.878000259399414,209.1750030517578 -14.454999923706055,209.0919952392578 -15.029999732971191,209 C-16.886999130249023,208.70399475097656 -18.735000610351562,208.36000061035156 -20.572999954223633,207.96600341796875 C-24.201000213623047,207.18899536132812 -27.788999557495117,206.2209930419922 -31.31399917602539,205.06100463867188 C-33.06100082397461,204.48599243164062 -34.792999267578125,203.86399841308594 -36.507999420166016,203.19500732421875 C-36.96799850463867,203.01600646972656 -37.42499923706055,202.8300018310547 -37.88399887084961,202.64700317382812 C-39.47200012207031,202.01300048828125 -37.612998962402344,202.85299682617188 -36.939998626708984,203.0540008544922 C-37.797000885009766,202.7989959716797 -38.64500045776367,202.31300354003906 -39.457000732421875,201.9409942626953 C-46.24100112915039,198.83299255371094 -52.67599868774414,194.9810028076172 -58.65599822998047,190.52099609375 C-58.994998931884766,190.26800537109375 -59.3849983215332,190.031005859375 -59.691001892089844,189.74000549316406 C-59.90700149536133,189.53399658203125 -57.582000732421875,191.39999389648438 -58.42300033569336,190.72000122070312 C-58.64799880981445,190.53799438476562 -58.880001068115234,190.36300659179688 -59.106998443603516,190.1840057373047 C-59.84600067138672,189.59800720214844 -60.57699966430664,189.00399780273438 -61.301998138427734,188.39999389648438 C-62.763999938964844,187.18299865722656 -64.1969985961914,185.9290008544922 -65.5979995727539,184.64199829101562 C-68.51300048828125,181.96499633789062 -71.29499816894531,179.14300537109375 -73.94400024414062,176.2030029296875 C-75.27400207519531,174.7259979248047 -76.56900024414062,173.22000122070312 -77.83300018310547,171.68699645996094 C-78.4229965209961,170.9709930419922 -79.00599670410156,170.2480010986328 -79.58200073242188,169.52000427246094 C-79.7750015258789,169.2760009765625 -79.96399688720703,169.0290069580078 -80.15899658203125,168.78700256347656 C-80.84200286865234,167.9340057373047 -79.08000183105469,170.19400024414062 -79.23300170898438,169.98699951171875 C-79.55899810791016,169.54600524902344 -79.89900207519531,169.11500549316406 -80.22799682617188,168.67599487304688 C-82.7229995727539,165.3489990234375 -85.07599639892578,161.91700744628906 -87.2959976196289,158.39999389648438 C-92.05400085449219,150.86300659179688 -96.1969985961914,142.94500732421875 -99.8219985961914,134.8040008544922 C-100.29299926757812,133.7480010986328 -100.74400329589844,132.6840057373047 -101.20700073242188,131.62399291992188 C-101.65899658203125,130.58900451660156 -100.60199737548828,133.07000732421875 -100.6709976196289,132.89500427246094 C-100.7699966430664,132.6439971923828 -100.87999725341797,132.39700317382812 -100.98200225830078,132.1479949951172 C-101.22200012207031,131.56399536132812 -101.46299743652344,130.97999572753906 -101.69999694824219,130.39500427246094 C-102.59100341796875,128.19000244140625 -103.4469985961914,125.97200012207031 -104.2699966430664,123.74099731445312 C-106.00199890136719,119.04499816894531 -107.58599853515625,114.29399871826172 -109.03600311279297,109.50299835205078 C-112.06900024414062,99.48400115966797 -114.52200317382812,89.29199981689453 -116.5,79.01399993896484 C-117.5719985961914,73.44000244140625 -118.50499725341797,67.83899688720703 -119.31300354003906,62.220001220703125 C-119.40599822998047,61.56999969482422 -119.49600219726562,60.917999267578125 -119.58799743652344,60.266998291015625 C-119.86599731445312,58.29499816894531 -119.30899810791016,62.42100143432617 -119.56600189208984,60.4379997253418 C-119.76599884033203,58.895999908447266 -119.96199798583984,57.35300064086914 -120.14700317382812,55.80799865722656 C-120.49500274658203,52.895999908447266 -120.81099700927734,49.97999954223633 -121.09600067138672,47.06100082397461 C-122.30699920654297,34.683998107910156 -122.9749984741211,22.2549991607666 -123.19499969482422,9.821000099182129 C-123.41999816894531,-2.8949999809265137 -123.197998046875,-15.623000144958496 -122.46600341796875,-28.320999145507812 C-122.11299896240234,-34.459999084472656 -121.63800048828125,-40.59199905395508 -121.02899932861328,-46.709999084472656 C-120.73899841308594,-49.624000549316406 -120.41899871826172,-52.53499984741211 -120.06700134277344,-55.44200134277344 C-119.90699768066406,-56.76499938964844 -119.73799896240234,-58.08599853515625 -119.56600189208984,-59.40700149536133 C-119.31900024414062,-61.31399917602539 -119.87899780273438,-57.14899826049805 -119.54299926757812,-59.5620002746582 C-119.43699645996094,-60.32099914550781 -119.3290023803711,-61.08000183105469 -119.21900177001953,-61.8380012512207 C-116.19599914550781,-82.62300109863281 -111.47200012207031,-103.24500274658203 -104.17400360107422,-122.96399688720703 C-103.31800079345703,-125.2770004272461 -102.4260025024414,-127.57599639892578 -101.49600219726562,-129.86000061035156 C-101.29199981689453,-130.36099243164062 -101.08399963378906,-130.85899353027344 -100.87899780273438,-131.36000061035156 C-100.19300079345703,-133.0330047607422 -101.81800079345703,-129.1790008544922 -101.10199737548828,-130.83299255371094 C-100.60800170898438,-131.9739990234375 -100.11499786376953,-133.11500549316406 -99.60600280761719,-134.25 C-97.76599884033203,-138.35400390625 -95.79299926757812,-142.3990020751953 -93.67500305175781,-146.3679962158203 C-89.6500015258789,-153.91099548339844 -85.0979995727539,-161.1840057373047 -79.94400024414062,-168.00900268554688 C-79.67500305175781,-168.36599731445312 -78.58300018310547,-169.78500366210938 -79.76799774169922,-168.25100708007812 C-80.95099639892578,-166.71800231933594 -79.85900115966797,-168.12600708007812 -79.58200073242188,-168.4759979248047 C-78.91100311279297,-169.3249969482422 -78.2300033569336,-170.16600036621094 -77.53900146484375,-170.99899291992188 C-76.27100372314453,-172.5260009765625 -74.97200012207031,-174.02499389648438 -73.63800048828125,-175.4949951171875 C-71.03099822998047,-178.3679962158203 -68.2969970703125,-181.125 -65.43499755859375,-183.74400329589844 C-64.03199768066406,-185.0279998779297 -62.597999572753906,-186.2779998779297 -61.13399887084961,-187.49200439453125 C-60.409000396728516,-188.093994140625 -59.67300033569336,-188.68299865722656 -58.93600082397461,-189.27099609375 C-57.62200164794922,-190.3179931640625 -59.11600112915039,-189.19200134277344 -59.691001892089844,-188.69200134277344 C-59.2599983215332,-189.06700134277344 -58.76900100708008,-189.38999938964844 -58.310001373291016,-189.72999572753906 C-55.32600021362305,-191.93699645996094 -52.233001708984375,-193.9929962158203 -49.03799819946289,-195.88099670410156 C-45.874000549316406,-197.75100708007812 -42.611000061035156,-199.45399475097656 -39.26599884033203,-200.97900390625 C-38.81700134277344,-201.18299865722656 -38.3650016784668,-201.38499450683594 -37.91299819946289,-201.58299255371094 C-37.48400115966797,-201.77099609375 -35.94200134277344,-202.4250030517578 -37.80500030517578,-201.63800048828125 C-39.66899871826172,-200.8509979248047 -38.12300109863281,-201.49899291992188 -37.68899917602539,-201.6750030517578 C-37.23099899291992,-201.86000061035156 -36.770999908447266,-202.04200744628906 -36.310001373291016,-202.2209930419922 C-34.52799987792969,-202.91099548339844 -32.72700119018555,-203.552001953125 -30.90999984741211,-204.14100646972656 C-27.378000259399414,-205.28700256347656 -23.784000396728516,-206.24099731445312 -20.150999069213867,-207.0030059814453 C-18.309999465942383,-207.38900756835938 -16.45800018310547,-207.7270050048828 -14.598999977111816,-208.01499938964844 C-14.166999816894531,-208.08299255371094 -13.734999656677246,-208.1439971923828 -13.302000045776367,-208.20899963378906 C-11.098999977111816,-208.54200744628906 -15.770000457763672,-207.9080047607422 -14.137999534606934,-208.0959930419922 C-13.187999725341797,-208.20599365234375 -12.23799991607666,-208.32000732421875 -11.28600025177002,-208.41400146484375 C-3.4639999866485596,-209.18699645996094 4.453000068664551,-209.16600036621094 12.270000457763672,-208.3470001220703 C13.147000312805176,-208.25599670410156 14.020000457763672,-208.1300048828125 14.895999908447266,-208.04100036621094 C10.788999557495117,-208.45799255371094 14.503000259399414,-208.0850067138672 15.567999839782715,-207.91299438476562 C17.42300033569336,-207.61399841308594 19.26799964904785,-207.26499938964844 21.104000091552734,-206.8679962158203 C24.79800033569336,-206.07000732421875 28.448999404907227,-205.07200622558594 32.034000396728516,-203.875 C33.77799987792969,-203.29299926757812 35.505001068115234,-202.66400146484375 37.215999603271484,-201.98899841308594 C37.61000061035156,-201.83399963378906 38.00199890136719,-201.6719970703125 38.395999908447266,-201.51499938964844 C40.1150016784668,-200.8300018310547 36.83100128173828,-202.2010040283203 37.44900131225586,-201.9199981689453 C38.347999572753906,-201.51100158691406 39.257999420166016,-201.1280059814453 40.154998779296875,-200.71299743652344 C43.4900016784668,-199.16799926757812 46.74300003051758,-197.44400024414062 49.895999908447266,-195.5540008544922 C53.145999908447266,-193.60699462890625 56.268001556396484,-191.4709930419922 59.308998107910156,-189.21400451660156 C60.65700149536133,-188.21400451660156 59.185001373291016,-189.3780059814453 58.558998107910156,-189.80499267578125 C58.915000915527344,-189.56300354003906 59.244998931884766,-189.2689971923828 59.582000732421875,-189.00100708007812 C60.37799835205078,-188.36900329589844 61.16400146484375,-187.7259979248047 61.94200134277344,-187.072998046875 C63.400001525878906,-185.8489990234375 64.8280029296875,-184.58900451660156 66.2249984741211,-183.29600524902344 C69.0770034790039,-180.65699768066406 71.8010025024414,-177.8800048828125 74.39600372314453,-174.98899841308594 C75.7239990234375,-173.50999450683594 77.01799774169922,-172 78.27999877929688,-170.46400451660156 C78.91799926757812,-169.68600463867188 79.54399871826172,-168.8990020751953 80.16899871826172,-168.11000061035156 C81.35199737548828,-166.6179962158203 79.2699966430664,-169.29800415039062 79.6729965209961,-168.7570037841797 C80.0479965209961,-168.25399780273438 80.43199920654297,-167.75799560546875 80.80599975585938,-167.25599670410156 C85.87899780273438,-160.44400024414062 90.36100006103516,-153.2010040283203 94.32599639892578,-145.6929931640625 C96.4729995727539,-141.62899780273438 98.47000122070312,-137.48500061035156 100.3280029296875,-133.27999877929688 C100.76000213623047,-132.30299377441406 101.16899871826172,-131.3159942626953 101.60199737548828,-130.33999633789062 C101.6780014038086,-130.16900634765625 100.64099884033203,-132.65899658203125 101.06500244140625,-131.60899353027344 C101.16600036621094,-131.35800170898438 101.27200317382812,-131.11000061035156 101.375,-130.86099243164062 C101.6510009765625,-130.1929931640625 101.9219970703125,-129.5240020751953 102.19100189208984,-128.85299682617188 C103.0780029296875,-126.64399719238281 103.93099975585938,-124.41999816894531 104.75,-122.18399810791016 C108.23799896240234,-112.65599822998047 111.12100219726562,-102.91100311279297 113.51399993896484,-93.0530014038086 C116.09100341796875,-82.43499755859375 118.0979995727539,-71.68099975585938 119.64099884033203,-60.86399841308594 C119.75,-60.104000091552734 119.84300231933594,-59.34199905395508 119.95899963378906,-58.58300018310547 C119.97100067138672,-58.50199890136719 119.6510009765625,-60.92900085449219 119.80500030517578,-59.736000061035156 C119.84700012207031,-59.40700149536133 119.89099884033203,-59.077999114990234 119.93299865722656,-58.749000549316406 C120.11900329589844,-57.316001892089844 120.2969970703125,-55.88100051879883 120.46700286865234,-54.44499969482422 C120.82599639892578,-51.41699981689453 121.1510009765625,-48.3849983215332 121.44300079345703,-45.349998474121094 C122.02100372314453,-39.32899856567383 122.47200012207031,-33.29600143432617 122.80599975585938,-27.256999969482422 C124.19300079345703,-2.177000045776367 123.78199768066406,23.082000732421875 121.2770004272461,48.08000183105469 C120.98500061035156,50.992000579833984 120.66200256347656,53.900001525878906 120.30799865722656,56.80500030517578 C120.13400268554688,58.236000061035156 119.93599700927734,59.66400146484375 119.76100158691406,61.095001220703125 C119.75,61.176998138427734 120.08399963378906,58.75299835205078 119.91500091552734,59.941001892089844 C119.86900329589844,60.266998291015625 119.82499694824219,60.59299850463867 119.77899932861328,60.91899871826172 C119.65799713134766,61.7859992980957 119.53399658203125,62.6510009765625 119.40699768066406,63.516998291015625 C118.5979995727539,69.01100158691406 117.66799926757812,74.48899841308594 116.60399627685547,79.94000244140625 C114.58499908447266,90.28199768066406 112.08200073242188,100.53500366210938 108.98600006103516,110.60900115966797 C107.5469970703125,115.29000091552734 105.9800033569336,119.93099975585938 104.2699966430664,124.5199966430664 C103.44200134277344,126.74199676513672 102.5790023803711,128.95199584960938 101.68199920654297,131.1479949951172 C101.47799682617188,131.6479949951172 101.26699829101562,132.14500427246094 101.06500244140625,132.64599609375 C100.64199829101562,133.6959991455078 101.6780014038086,131.20700073242188 101.60199737548828,131.3769989013672 C101.45700073242188,131.70399475097656 101.3219985961914,132.03500366210938 101.18099975585938,132.36300659179688 C100.72599792480469,133.4219970703125 100.26100158691406,134.47799682617188 99.78800201416016,135.52999877929688 C96.14299774169922,143.63800048828125 91.97699737548828,151.52000427246094 87.197998046875,159.0189971923828 C84.96900177001953,162.51800537109375 82.60399627685547,165.9320068359375 80.0999984741211,169.24000549316406 C79.95800018310547,169.427001953125 79.81400299072266,169.61199951171875 79.6729965209961,169.8000030517578 C79.0199966430664,170.6790008544922 80.76300048828125,168.4040069580078 80.60199737548828,168.6020050048828 C80.25900268554688,169.02499389648438 79.93000030517578,169.45899963378906 79.59100341796875,169.88499450683594 C78.96600341796875,170.6699981689453 78.33200073242188,171.44900512695312 77.69000244140625,172.2209930419922 C76.3740005493164,173.80299377441406 75.02200317382812,175.35499572753906 73.63400268554688,176.87600708007812 C71.02100372314453,179.73699951171875 68.28099822998047,182.48199462890625 65.41300201416016,185.08799743652344 C64.00700378417969,186.36599731445312 62.56999969482422,187.61000061035156 61.10300064086914,188.81700134277344 C60.375999450683594,189.41600036621094 59.637001037597656,189.99899291992188 58.9010009765625,190.58700561523438 C57.62099838256836,191.61000061035156 60.97100067138672,189.031005859375 59.65399932861328,190.0019989013672 C59.249000549316406,190.30099487304688 58.849998474121094,190.60699462890625 58.444000244140625,190.906005859375 C52.44300079345703,195.32899475097656 45.99100112915039,199.13900756835938 39.194000244140625,202.20399475097656 C38.80799865722656,202.3780059814453 38.41999816894531,202.5469970703125 38.03300094604492,202.718994140625 C36.46900177001953,203.41200256347656 38.37699890136719,202.67100524902344 38.983001708984375,202.32400512695312 C38.154998779296875,202.79800415039062 37.12099838256836,203.08299255371094 36.229000091552734,203.4250030517578 C34.5099983215332,204.08299255371094 32.77399826049805,204.69400024414062 31.023000717163086,205.25900268554688 C27.42099952697754,206.4199981689453 23.7549991607666,207.38099670410156 20.04800033569336,208.14300537109375 C18.275999069213867,208.50799560546875 16.4950008392334,208.82699584960938 14.706999778747559,209.1020050048828 C14.27400016784668,209.16799926757812 13.840999603271484,209.2270050048828 13.409000396728516,209.29299926757812 C11.736000061035156,209.5469970703125 16.145000457763672,208.95399475097656 14.460000038146973,209.1490020751953 C13.510000228881836,209.25900268554688 12.560999870300293,209.3730010986328 11.609000205993652,209.4669952392578 C7.804999828338623,209.84300231933594 3.9860000610351562,210.01699829101562 0.164000004529953,210.0240020751953 C-5.328000068664551,210.03399658203125 -10.59000015258789,214.8459930419922 -10.336000442504883,220.5240020751953 C-10.081999778747559,226.20399475097656 -5.7220001220703125,231.03500366210938 0.164000004529953,231.0240020751953z"></path></g></g></g></svg>