<svg xmlns:xlink="http://www.w3.org/1999/xlink"  width="95" height="147" viewBox="0 0 95 147" fill="none" xmlns="http://www.w3.org/2000/svg">
<path d="M81.9598 63.0299L89.0598 95.5299C93.5598 116.33 80.9598 136.73 60.8598 141.03C40.7598 145.43 20.7598 132.13 16.2598 111.33C12.2598 92.7299 21.8598 74.5299 38.3598 67.7299L15.1598 31.1299C11.9598 26.0299 13.4598 19.3299 18.5598 16.1299C19.6598 15.4299 20.8598 14.9299 22.0598 14.7299C26.4598 13.8299 31.0598 15.6299 33.5598 19.5299L58.8598 59.6299L49.8598 18.2299C48.5598 12.3299 52.2598 6.52992 58.1598 5.22992C61.0598 4.62992 64.0598 5.22992 66.3598 6.72992C68.6598 8.22992 70.4598 10.6299 71.1598 13.6299L81.9598 63.0299Z" fill="#F982FB" stroke="#F4F4F4" stroke-width="10" stroke-miterlimit="10"/>
<path d="M81.9598 63.0299L89.0598 95.5299C93.5598 116.33 80.9598 136.73 60.8598 141.03C40.7598 145.43 20.7598 132.13 16.2598 111.33C12.2598 92.7299 21.8598 74.5299 38.3598 67.7299L15.1598 31.1299C11.9598 26.0299 13.4598 19.3299 18.5598 16.1299C19.6598 15.4299 20.8598 14.9299 22.0598 14.7299C26.4598 13.8299 31.0598 15.6299 33.5598 19.5299L58.8598 59.6299L49.8598 18.2299C48.5598 12.3299 52.2598 6.52992 58.1598 5.22992C61.0598 4.62992 64.0598 5.22992 66.3598 6.72992C68.6598 8.22992 70.4598 10.6299 71.1598 13.6299L81.9598 63.0299Z" fill="#F982FB"/>
<path d="M21.86 116.33C15.96 117.63 10.16 113.93 8.86001 108.03L2.26001 77.5299C0.960014 71.6299 4.66002 65.8299 10.56 64.5299C16.46 63.2299 22.26 66.9299 23.56 72.8299L30.16 103.33C31.46 109.33 27.76 115.13 21.86 116.33Z" fill="#F982FB" stroke="#F4F4F4" stroke-width="4" stroke-miterlimit="10"/>
<path d="M43.16 111.73C37.26 113.03 31.46 109.33 30.16 103.43L23.56 72.9299C22.26 67.0299 26.06 61.2299 31.86 59.9299C37.76 58.6299 43.56 62.4299 44.86 68.2299L51.46 98.7299C52.76 104.63 49.06 110.43 43.16 111.73Z" fill="#F982FB" stroke="#F4F4F4" stroke-width="4" stroke-miterlimit="10"/>
<path d="M38.3596 90.43C37.0596 84.53 40.7596 78.73 46.6596 77.43L77.1596 70.83C83.0596 69.53 88.8596 73.23 90.1596 79.13C91.4596 85.03 87.7596 90.83 81.8596 92.13L51.3596 98.73C45.4596 100.13 39.6596 96.33 38.3596 90.43Z" fill="#F982FB" stroke="#F4F4F4" stroke-width="4" stroke-miterlimit="10"/>
</svg>
